<svg width="26" height="28" viewBox="0 0 26 28" fill="none" xmlns="http://www.w3.org/2000/svg">
<path fill-rule="evenodd" clip-rule="evenodd" d="M23.4 20.427V16.2791H14.3V13.6744H19.8796L19.4584 12.0452C18.8513 9.69712 17.0105 7.94809 14.7511 7.37898C16.0199 6.73302 16.9 5.42809 16.9 3.90698C16.9 1.75293 15.1502 0 13 0C10.8498 0 9.1 1.75293 9.1 3.90698C9.1 5.42809 9.9801 6.73302 11.2489 7.37898C8.9895 7.94809 7.1487 9.69712 6.5416 12.0452L6.1204 13.6744H11.7V16.2791H2.6V20.427C1.0894 20.9661 0 22.3987 0 24.093C0 26.2484 1.7498 28 3.9 28C6.0502 28 7.8 26.2484 7.8 24.093C7.8 22.3987 6.7106 20.9661 5.2 20.427V18.8837H11.7V20.427C10.1894 20.9661 9.1 22.3987 9.1 24.093C9.1 26.2484 10.8498 28 13 28C15.1502 28 16.9 26.2484 16.9 24.093C16.9 22.3987 15.8106 20.9661 14.3 20.427V18.8837H20.8V20.427C19.2894 20.9661 18.2 22.3987 18.2 24.093C18.2 26.2484 19.9498 28 22.1 28C24.2502 28 26 26.2484 26 24.093C26 22.3987 24.9106 20.9661 23.4 20.427Z" fill="#7885A1"/>
</svg>
