<svg width="28" height="28" viewBox="0 0 28 28" fill="none" xmlns="http://www.w3.org/2000/svg">
<path fill-rule="evenodd" clip-rule="evenodd" d="M14 25.6667C20.4433 25.6667 25.6667 20.4433 25.6667 14C25.6667 7.55668 20.4433 2.33333 14 2.33333C7.55668 2.33333 2.33333 7.55668 2.33333 14C2.33333 20.4433 7.55668 25.6667 14 25.6667ZM14 28C21.732 28 28 21.732 28 14C28 6.26801 21.732 0 14 0C6.26801 0 0 6.26801 0 14C0 21.732 6.26801 28 14 28Z" fill="#BDC8DF"/>
<path fill-rule="evenodd" clip-rule="evenodd" d="M14 21C17.866 21 21 17.866 21 14C21 10.134 17.866 7 14 7C10.134 7 7 10.134 7 14C7 17.866 10.134 21 14 21ZM14 23.3333C19.1547 23.3333 23.3333 19.1547 23.3333 14C23.3333 8.84534 19.1547 4.66667 14 4.66667C8.84534 4.66667 4.66667 8.84534 4.66667 14C4.66667 19.1547 8.84534 23.3333 14 23.3333Z" fill="#BDC8DF"/>
<path d="M18.6667 14C18.6667 16.5773 16.5773 18.6667 14 18.6667C11.4227 18.6667 9.33333 16.5773 9.33333 14C9.33333 11.4227 11.4227 9.33333 14 9.33333C16.5773 9.33333 18.6667 11.4227 18.6667 14Z" fill="#BDC8DF"/>
</svg>
