<svg width="24" height="26" viewBox="0 0 24 26" fill="none" xmlns="http://www.w3.org/2000/svg">
<path fill-rule="evenodd" clip-rule="evenodd" d="M4 0H7V2.99994H17V0H20V2.99994H21C22.6569 2.99994 24 4.34308 24 5.99994V22.9999C24 24.6568 22.6569 25.9999 21 25.9999H3C1.34315 25.9999 0 24.6568 0 22.9999V5.99994C0 4.34309 1.34315 2.99994 3 2.99994H4V0ZM22 9.99994H2V22.9999H22V9.99994ZM4 13H8V16H4V13ZM14 13H10V16H14V13ZM4 18H8V21H4V18ZM14 18H10V21H14V18ZM16 13H20V16H16V13ZM20 18H16V21H20V18Z" fill="#7885A1"/>
</svg>
