<svg width="17" height="27" viewBox="0 0 17 27" fill="none" xmlns="http://www.w3.org/2000/svg">
<path fill-rule="evenodd" clip-rule="evenodd" d="M6.53846 27C2.75008 27 0 24.0261 0 19.9286V9C0 3.86871 3.65369 0 8.5 0C13.3463 0 17 3.86871 17 9V18H14.3846V9C14.3846 5.27529 11.9092 2.57143 8.5 2.57143C5.09085 2.57143 2.61538 5.27529 2.61538 9V19.9286C2.61538 22.1696 3.82892 24.4286 6.53846 24.4286C9.248 24.4286 10.4615 22.1696 10.4615 19.9286V10.2857C10.4615 9.51171 10.2706 7.71429 8.5 7.71429C6.72938 7.71429 6.53846 9.51171 6.53846 10.2857V19.2857H3.92308V10.2857C3.92308 7.209 5.763 5.14286 8.5 5.14286C11.237 5.14286 13.0769 7.209 13.0769 10.2857V19.9286C13.0769 24.0261 10.3268 27 6.53846 27Z" fill="#7885A1"/>
</svg>
