<svg width="24" height="20" viewBox="0 0 24 20" fill="none" xmlns="http://www.w3.org/2000/svg">
<path fill-rule="evenodd" clip-rule="evenodd" d="M1.46447 1.46447C0 2.92893 0 5.28595 0 10C0 14.714 0 17.0711 1.46447 18.5355C2.92893 20 5.28595 20 10 20H14C18.714 20 21.0711 20 22.5355 18.5355C24 17.0711 24 14.714 24 10C24 5.28595 24 2.92893 22.5355 1.46447C21.0711 0 18.714 0 14 0H10C5.28595 0 2.92893 0 1.46447 1.46447ZM21.3597 5.43058C21.7567 5.19435 22 4.7665 22 4.30452C22 3.28813 20.893 2.65871 20.0196 3.17846L13.023 7.34184C12.3927 7.71687 11.6078 7.71688 10.9775 7.34187L3.98043 3.17841C3.10696 2.65867 2 3.2881 2 4.3045C2 4.76649 2.24328 5.19435 2.6403 5.43059L10.9773 10.3914C11.6075 10.7665 12.3925 10.7665 13.0227 10.3914L21.3597 5.43058Z" fill="#7885A1"/>
</svg>
