<svg width="24" height="30" viewBox="0 0 24 30" fill="none" xmlns="http://www.w3.org/2000/svg">
<path fill-rule="evenodd" clip-rule="evenodd" d="M12 0C14.2091 0 16 1.79086 16 4H17H22C23.1046 4 24 4.89543 24 6V28C24 29.1046 23.1046 30 22 30H2C0.89543 30 0 29.1046 0 28V6C0 4.89543 0.895431 4 2 4H7H8C8 1.79086 9.79086 0 12 0ZM7 7V10H17V7H21V27H3V7H7ZM12 5.5C12.8284 5.5 13.5 4.82843 13.5 4C13.5 3.17157 12.8284 2.5 12 2.5C11.1716 2.5 10.5 3.17157 10.5 4C10.5 4.82843 11.1716 5.5 12 5.5Z" fill="#7885A1"/>
</svg>
